# .PCD v0.7 - Point Cloud Data file format
VERSION 0.7
FIELDS x y z
SIZE 4 4 4
TYPE F F F
COUNT 1 1 1
WIDTH 324
HEIGHT 1
VIEWPOINT 0 0 0 1 0 0 0
POINTS 324
DATA ascii
-0.560570 0.406502 1.314039
-0.559817 0.406491 1.317846
-0.559070 0.407680 1.321700
-0.559848 0.410080 1.317919
-0.558189 0.411766 1.326416
-0.556441 0.414321 1.335422
-0.554515 0.417406 1.345366
-0.552551 0.419304 1.355423
-0.552572 0.421765 1.355474
-0.550976 0.423073 1.363628
-0.549775 0.424995 1.369825
-0.548563 0.426937 1.376085
-0.546919 0.428296 1.384490
-0.546940 0.430810 1.384543
-0.544858 0.432870 1.395208
-0.542745 0.436226 1.406025
-0.541142 0.438270 1.413986
-0.540561 0.440883 1.416916
-0.539666 0.439681 1.421290
-0.539675 0.442252 1.421314
-0.431593 0.166408 0.986671
-0.431614 0.175315 0.986718
-0.431637 0.185114 0.986770
-0.431659 0.194914 0.986823
-0.431682 0.204715 0.986875
-0.431707 0.215409 0.986932
-0.431730 0.225212 0.986985
-0.431753 0.235016 0.987037
-0.431776 0.244822 0.987089
-0.431799 0.254628 0.987142
-0.431824 0.265327 0.987199
-0.431550 0.275729 0.987250
-0.430974 0.284941 0.987290
-0.430992 0.292968 0.987333
-0.420803 0.147682 0.986411
-0.423211 0.156294 0.986492
-0.427673 0.165619 0.986608
-0.429149 0.174641 0.986678
-0.429837 0.181546 0.986725
-0.427932 0.287247 0.987257
-0.426155 0.294017 0.987267
-0.422049 0.300955 0.987243
-0.412615 0.088926 0.985977
-0.413224 0.094561 0.986016
-0.413542 0.103163 0.986067
-0.411778 0.114729 0.986102
-0.414487 0.125413 0.986199
-0.417794 0.136695 0.986308
-0.419001 0.142336 0.986356
-0.405457 0.088916 0.985871
-0.409937 0.091591 0.985952
-0.401537 0.147400 0.939261
-0.402332 0.143751 0.943112
-0.401920 0.155362 0.936208
-0.402981 0.165401 0.933504
-0.406248 0.161990 0.940363
-0.401882 0.175822 0.928317
-0.405193 0.174314 0.932563
-0.402650 0.185001 0.928158
-0.405756 0.184817 0.931445
-0.402728 0.194247 0.928339
-0.405926 0.194979 0.931836
-0.401697 0.205447 0.927502
-0.406097 0.205151 0.932227
-0.401484 0.214960 0.927397
-0.406267 0.215330 0.932619
-0.401556 0.225037 0.927563
-0.406438 0.225519 0.933011
-0.401628 0.235118 0.927728
-0.406609 0.235716 0.933404
-0.401699 0.245202 0.927893
-0.406766 0.245070 0.933764
-0.401774 0.255292 0.928066
-0.406923 0.254432 0.934124
-0.401540 0.262948 0.928495
-0.405074 0.264250 0.933096
-0.402155 0.273813 0.934136
-0.401511 0.281481 0.937225
-0.390486 0.088939 0.939171
-0.392551 0.089023 0.940058
-0.393215 0.088818 0.956103
-0.394724 0.088902 0.985711
-0.392598 0.094970 0.940171
-0.392453 0.104690 0.940638
-0.391134 0.116035 0.939099
-0.393393 0.115044 0.942072
-0.392457 0.125919 0.937028
-0.396477 0.124414 0.942672
-0.394042 0.135437 0.935316
-0.398907 0.134947 0.941054
-0.391030 0.147106 0.929390
-0.395025 0.144471 0.933115
-0.392788 0.155848 0.927929
-0.397479 0.154239 0.931733
-0.394786 0.165689 0.926285
-0.398695 0.160318 0.930652
-0.394854 0.174932 0.923621
-0.395405 0.184798 0.922962
-0.395456 0.194812 0.923081
-0.394813 0.204478 0.922778
-0.394431 0.214689 0.922635
-0.394481 0.224703 0.922751
-0.394530 0.234719 0.922867
-0.394580 0.244738 0.922983
-0.394630 0.254759 0.923099
-0.394524 0.265072 0.924331
-0.393900 0.274517 0.927263
-0.398136 0.277184 0.931306
-0.391828 0.281935 0.928697
-0.395774 0.283825 0.932238
-0.384437 0.088912 0.938878
-0.384418 0.088778 0.955669
-0.384887 0.088889 0.985565
-0.384758 0.094501 0.935532
-0.384788 0.104548 0.935899
-0.384511 0.114880 0.935929
-0.384687 0.124578 0.933315
-0.383457 0.138156 0.929319
-0.385391 0.133076 0.931276
-0.384769 0.145664 0.927733
-0.388452 0.140111 0.930243
-0.384824 0.155332 0.925161
-0.384874 0.164554 0.922757
-0.383450 0.177340 0.919255
-0.385985 0.172864 0.920774
-0.384246 0.185302 0.919084
-0.389165 0.186700 0.920027
-0.383786 0.195622 0.919065
-0.389196 0.194183 0.920101
-0.383815 0.205585 0.919136
-0.389242 0.204995 0.920209
-0.383845 0.215550 0.919207
-0.389287 0.215810 0.920316
-0.383875 0.225515 0.919278
-0.389329 0.225794 0.920415
-0.383647 0.235233 0.919301
-0.388903 0.236579 0.920389
-0.383037 0.245409 0.919260
-0.388467 0.245697 0.920339
-0.383068 0.255378 0.919333
-0.388505 0.255682 0.920428
-0.382514 0.262266 0.919498
-0.385764 0.265702 0.921081
-0.384851 0.274910 0.923913
-0.385010 0.283454 0.926748
-0.384439 0.303458 0.986697
-0.374939 0.088868 0.938417
-0.374749 0.088734 0.955192
-0.376842 0.088878 0.985445
-0.374541 0.094479 0.935316
-0.374559 0.104768 0.935761
-0.374741 0.114784 0.935818
-0.374211 0.113774 0.985538
-0.374915 0.124366 0.933180
-0.371255 0.125925 0.985559
-0.376784 0.137787 0.929218
-0.373717 0.133383 0.931003
-0.374817 0.145513 0.927539
-0.370014 0.140119 0.930291
-0.374979 0.154983 0.925030
-0.374825 0.164916 0.922439
-0.375309 0.177124 0.919258
-0.374474 0.171973 0.920630
-0.374632 0.185659 0.918982
-0.374653 0.195616 0.919034
-0.374674 0.205574 0.919086
-0.374695 0.215533 0.919138
-0.374717 0.225494 0.919190
-0.374738 0.235455 0.919242
-0.374760 0.245419 0.919296
-0.374782 0.255383 0.919350
-0.375696 0.262549 0.919556
-0.374428 0.266835 0.920998
-0.374940 0.274732 0.923438
-0.374797 0.283084 0.926151
-0.376894 0.302660 0.986581
-0.368314 0.088904 0.938793
-0.363860 0.089476 0.944833
-0.365968 0.088693 0.954759
-0.368235 0.094810 0.938593
-0.363910 0.095275 0.944657
-0.362087 0.094607 0.953608
-0.368329 0.103872 0.938524
-0.364560 0.105313 0.944736
-0.362405 0.104405 0.953542
-0.368454 0.115964 0.938532
-0.364434 0.115123 0.944182
-0.362219 0.115586 0.952831
-0.366703 0.125557 0.936849
-0.361804 0.124664 0.943537
-0.360507 0.121697 0.952469
-0.364923 0.135036 0.935250
-0.360575 0.133200 0.940690
-0.368000 0.136889 0.985569
-0.368607 0.146634 0.929053
-0.363919 0.144272 0.932818
-0.365338 0.146668 0.985581
-0.366126 0.155947 0.927664
-0.361856 0.153465 0.931179
-0.362377 0.156151 0.985587
-0.364739 0.165176 0.925733
-0.360010 0.164449 0.985596
-0.369198 0.178376 0.919896
-0.364971 0.174540 0.922882
-0.369208 0.184189 0.919922
-0.364260 0.184627 0.922106
-0.369229 0.194986 0.919973
-0.364272 0.194613 0.922136
-0.364993 0.204769 0.921861
-0.365006 0.214754 0.921894
-0.365020 0.224739 0.921927
-0.365098 0.234848 0.921931
-0.365046 0.244950 0.921994
-0.365059 0.254938 0.922027
-0.364901 0.264984 0.923271
-0.365371 0.274954 0.926468
-0.360679 0.278974 0.930742
-0.366530 0.282897 0.928554
-0.361915 0.283358 0.931585
-0.360249 0.287310 0.986252
-0.359264 0.127735 0.947979
-0.359098 0.127034 0.952983
-0.359821 0.139695 0.938722
-0.358213 0.135186 0.944786
-0.356926 0.135546 0.953615
-0.358330 0.146227 0.937871
-0.355477 0.144899 0.944834
-0.354350 0.145090 0.954398
-0.356925 0.155509 0.935731
-0.352906 0.154704 0.944208
-0.351640 0.154903 0.953697
-0.359045 0.166324 0.929048
-0.354803 0.164896 0.934560
-0.350834 0.163293 0.943020
-0.350544 0.161856 0.959681
-0.358233 0.169783 0.985598
-0.357310 0.175791 0.927479
-0.352395 0.174500 0.933451
-0.356459 0.176896 0.985610
-0.356963 0.185254 0.926914
-0.351632 0.185071 0.932729
-0.353228 0.186756 0.985614
-0.357011 0.195125 0.926891
-0.351701 0.194960 0.932621
-0.353241 0.193713 0.985651
-0.356973 0.204989 0.926942
-0.352172 0.205084 0.931928
-0.354725 0.204478 0.985730
-0.356979 0.215024 0.926956
-0.352171 0.215170 0.931925
-0.353675 0.216579 0.985779
-0.356984 0.225060 0.926970
-0.352170 0.225255 0.931922
-0.352976 0.224944 0.985813
-0.356990 0.235096 0.926984
-0.352168 0.235341 0.931919
-0.352636 0.234202 0.985857
-0.356995 0.245132 0.926998
-0.352232 0.245155 0.931827
-0.352121 0.245418 0.985909
-0.357000 0.255169 0.927011
-0.352166 0.254950 0.931914
-0.352140 0.255213 0.985961
-0.357415 0.264132 0.927652
-0.352700 0.265549 0.933336
-0.352455 0.263921 0.986012
-0.359101 0.271945 0.929194
-0.355389 0.274881 0.934647
-0.351073 0.276212 0.943284
-0.350484 0.279870 0.954802
-0.351056 0.278244 0.961083
-0.356648 0.274823 0.986132
-0.357311 0.282708 0.936043
-0.353033 0.282939 0.943981
-0.351503 0.282667 0.954069
-0.358447 0.280176 0.986187
-0.349066 0.166422 0.946296
-0.348779 0.165612 0.954384
-0.349327 0.167296 0.961097
-0.348947 0.176306 0.938322
-0.347279 0.174632 0.944535
-0.346074 0.175656 0.953441
-0.347289 0.174077 0.960254
-0.348472 0.184811 0.938011
-0.346281 0.185375 0.944693
-0.345310 0.184154 0.953004
-0.348437 0.187551 0.985547
-0.348617 0.194962 0.937669
-0.346131 0.195232 0.945284
-0.345263 0.194587 0.954651
-0.348447 0.192890 0.985575
-0.348993 0.205058 0.936933
-0.346093 0.205241 0.945283
-0.345211 0.204888 0.954508
-0.348924 0.214903 0.937016
-0.346117 0.215023 0.944941
-0.345159 0.215186 0.954365
-0.348495 0.218699 0.985713
-0.348975 0.224765 0.936887
-0.346003 0.224801 0.945236
-0.345107 0.225481 0.954222
-0.348507 0.224929 0.985746
-0.348969 0.234901 0.936870
-0.346026 0.234806 0.944998
-0.345060 0.234916 0.954091
-0.346341 0.234365 0.962432
-0.348526 0.234721 0.985799
-0.348963 0.245036 0.936854
-0.346021 0.244799 0.944883
-0.345012 0.244348 0.953960
-0.346195 0.244679 0.962027
-0.348546 0.245405 0.985855
-0.348957 0.255171 0.936837
-0.345984 0.254803 0.944881
-0.344961 0.254634 0.953817
-0.346049 0.254983 0.961621
-0.348564 0.255199 0.985908
-0.349140 0.263709 0.937894
-0.347083 0.264765 0.944575
-0.345998 0.264878 0.953968
-0.345964 0.260990 0.961385
-0.348579 0.263213 0.985951
-0.349050 0.272671 0.946253
-0.348733 0.274140 0.952844
