# .PCD v0.7 - Point Cloud Data file format
VERSION 0.7
FIELDS x y z
SIZE 4 4 4
TYPE F F F
COUNT 1 1 1
WIDTH 326
HEIGHT 1
VIEWPOINT 0 0 0 1 0 0 0
POINTS 326
DATA ascii
-0.560525 0.406470 1.313935
-0.559773 0.406459 1.317742
-0.559026 0.407648 1.321595
-0.559803 0.410047 1.317814
-0.558145 0.411733 1.326309
-0.556396 0.414288 1.335314
-0.554470 0.417372 1.345256
-0.552505 0.419270 1.355312
-0.552526 0.421730 1.355363
-0.550931 0.423037 1.363515
-0.549730 0.424960 1.369711
-0.548517 0.426901 1.375969
-0.546872 0.428260 1.384373
-0.546893 0.430774 1.384426
-0.544811 0.432833 1.395089
-0.542699 0.436190 1.405907
-0.541097 0.438233 1.413867
-0.540515 0.440846 1.416796
-0.539621 0.439644 1.421170
-0.539630 0.442214 1.421194
-0.431597 0.166409 0.986679
-0.431616 0.175316 0.986724
-0.431637 0.185115 0.986773
-0.431659 0.194914 0.986821
-0.431680 0.204714 0.986870
-0.431704 0.215407 0.986924
-0.431725 0.225209 0.986973
-0.431746 0.235012 0.987021
-0.431768 0.244817 0.987070
-0.431789 0.254622 0.987119
-0.431813 0.265320 0.987173
-0.431537 0.275720 0.987220
-0.430959 0.284932 0.987257
-0.430977 0.292957 0.987297
-0.420810 0.147684 0.986426
-0.423216 0.156296 0.986504
-0.427676 0.165620 0.986617
-0.429151 0.174642 0.986684
-0.429838 0.181547 0.986728
-0.427917 0.287237 0.987223
-0.426139 0.294006 0.987230
-0.422032 0.300943 0.987204
-0.411735 0.088928 0.985999
-0.412643 0.095157 0.986043
-0.413555 0.103166 0.986097
-0.411791 0.115622 0.986132
-0.414315 0.124348 0.986213
-0.416602 0.133728 0.986294
-0.419008 0.142338 0.986372
-0.405472 0.088919 0.985906
-0.409951 0.091594 0.985986
-0.400663 0.144849 0.939200
-0.402836 0.143931 0.944294
-0.402058 0.154615 0.936812
-0.403025 0.165419 0.933606
-0.406705 0.162173 0.941420
-0.401683 0.175907 0.928135
-0.405040 0.174442 0.932372
-0.402657 0.185005 0.928176
-0.405771 0.184824 0.931480
-0.402733 0.194250 0.928350
-0.405937 0.194985 0.931862
-0.401698 0.205447 0.927505
-0.406104 0.205154 0.932243
-0.401483 0.214959 0.927395
-0.406270 0.215332 0.932625
-0.401552 0.225035 0.927554
-0.406436 0.225518 0.933008
-0.401621 0.235114 0.927713
-0.406603 0.235712 0.933390
-0.401690 0.245197 0.927873
-0.406756 0.245064 0.933741
-0.401761 0.255284 0.928036
-0.406909 0.254424 0.934093
-0.401888 0.262844 0.928719
-0.405330 0.264547 0.933556
-0.402058 0.273747 0.933911
-0.401365 0.281378 0.936884
-0.390806 0.089012 0.939941
-0.392585 0.089031 0.940140
-0.393565 0.088897 0.956954
-0.394737 0.088905 0.985746
-0.392631 0.094978 0.940250
-0.392527 0.105203 0.940680
-0.391259 0.116870 0.938990
-0.393040 0.114684 0.941906
-0.392495 0.125932 0.937119
-0.395593 0.123942 0.941243
-0.393869 0.135587 0.935129
-0.398540 0.134354 0.940853
-0.391388 0.148341 0.929246
-0.394829 0.144435 0.933047
-0.392606 0.155612 0.927926
-0.397509 0.154250 0.931803
-0.394857 0.165494 0.926420
-0.398726 0.160330 0.930724
-0.394868 0.174938 0.923654
-0.395409 0.184800 0.922969
-0.395458 0.194813 0.923084
-0.394812 0.204478 0.922774
-0.394427 0.214687 0.922626
-0.394475 0.224700 0.922737
-0.394522 0.234714 0.922848
-0.394570 0.244732 0.922959
-0.394618 0.254751 0.923070
-0.394494 0.265052 0.924262
-0.393864 0.274492 0.927178
-0.398083 0.277147 0.931184
-0.391791 0.281909 0.928611
-0.395725 0.283790 0.932123
-0.384752 0.088984 0.939646
-0.384759 0.088857 0.956517
-0.384901 0.088892 0.985599
-0.384776 0.094506 0.935577
-0.384806 0.104553 0.935942
-0.384535 0.114887 0.935987
-0.384708 0.124585 0.933367
-0.383001 0.138282 0.929229
-0.385443 0.133415 0.931226
-0.384645 0.145783 0.927721
-0.388473 0.140119 0.930292
-0.384838 0.155338 0.925195
-0.384886 0.164559 0.922787
-0.383457 0.177343 0.919273
-0.385996 0.172869 0.920800
-0.384246 0.185302 0.919085
-0.389165 0.186700 0.920028
-0.383784 0.195622 0.919062
-0.389195 0.194183 0.920099
-0.383812 0.205584 0.919129
-0.389239 0.204994 0.920201
-0.383840 0.215547 0.919196
-0.389282 0.215807 0.920303
-0.383868 0.225512 0.919263
-0.389322 0.225790 0.920398
-0.383772 0.235329 0.919306
-0.389095 0.236350 0.920422
-0.383027 0.245403 0.919235
-0.388457 0.245691 0.920315
-0.383056 0.255370 0.919304
-0.388492 0.255674 0.920399
-0.382497 0.262524 0.919513
-0.385918 0.265740 0.921078
-0.384823 0.274889 0.923845
-0.384979 0.283431 0.926673
-0.383528 0.303441 0.986642
-0.374381 0.088937 0.939141
-0.375081 0.088812 0.956037
-0.376855 0.088881 0.985479
-0.374552 0.094482 0.935344
-0.374570 0.104771 0.935789
-0.374756 0.114789 0.935856
-0.374222 0.114667 0.985568
-0.374930 0.124371 0.933216
-0.371263 0.125927 0.985580
-0.376798 0.137792 0.929251
-0.373730 0.133388 0.931035
-0.374689 0.145410 0.927609
-0.370025 0.140123 0.930318
-0.374989 0.154987 0.925056
-0.374833 0.164920 0.922461
-0.375314 0.177127 0.919272
-0.374482 0.171977 0.920649
-0.374631 0.185658 0.918980
-0.374651 0.195615 0.919029
-0.374670 0.205572 0.919077
-0.374690 0.215530 0.919125
-0.374710 0.225490 0.919174
-0.374730 0.235450 0.919222
-0.374750 0.245412 0.919271
-0.374770 0.255375 0.919322
-0.375677 0.262536 0.919510
-0.374404 0.266818 0.920940
-0.374915 0.274713 0.923376
-0.374771 0.283064 0.926086
-0.376666 0.302816 0.986537
-0.367663 0.088951 0.939291
-0.363862 0.089476 0.944838
-0.366292 0.088772 0.955602
-0.368242 0.094812 0.938611
-0.363912 0.095276 0.944662
-0.362072 0.094603 0.953569
-0.368246 0.104125 0.938621
-0.364450 0.105225 0.944841
-0.362333 0.104916 0.953501
-0.368466 0.115968 0.938564
-0.364445 0.115126 0.944210
-0.362229 0.115589 0.952856
-0.366714 0.125561 0.936877
-0.361813 0.124668 0.943563
-0.360518 0.121701 0.952496
-0.364933 0.135040 0.935276
-0.360584 0.133203 0.940713
-0.368006 0.136891 0.985585
-0.368617 0.146638 0.929078
-0.363928 0.144276 0.932841
-0.365343 0.146670 0.985594
-0.366134 0.155951 0.927685
-0.361864 0.153468 0.931200
-0.362678 0.155560 0.985599
-0.364746 0.165179 0.925751
-0.360012 0.164450 0.985603
-0.369198 0.178376 0.919896
-0.364976 0.174542 0.922895
-0.369206 0.184188 0.919918
-0.364258 0.184626 0.922101
-0.369226 0.194984 0.919965
-0.364268 0.194611 0.922128
-0.369237 0.201628 0.919994
-0.364885 0.204843 0.921895
-0.365000 0.214750 0.921879
-0.365012 0.224735 0.921910
-0.365090 0.234843 0.921910
-0.365036 0.244944 0.921970
-0.365048 0.254930 0.922000
-0.364880 0.264970 0.923220
-0.365348 0.274936 0.926408
-0.360655 0.278955 0.930680
-0.366505 0.282877 0.928490
-0.362238 0.283650 0.931396
-0.360236 0.287299 0.986215
-0.362035 0.292652 0.986269
-0.359273 0.127738 0.948003
-0.359108 0.127038 0.953010
-0.359829 0.139698 0.938744
-0.358222 0.135189 0.944809
-0.356938 0.135550 0.953645
-0.358338 0.146231 0.937891
-0.355485 0.144902 0.944856
-0.354361 0.145095 0.954428
-0.356932 0.155512 0.935750
-0.352913 0.154707 0.944228
-0.351652 0.154908 0.953728
-0.359052 0.166327 0.929065
-0.354884 0.164930 0.934441
-0.350916 0.163322 0.942804
-0.350559 0.161863 0.959723
-0.358234 0.169784 0.985603
-0.357313 0.175792 0.927488
-0.352399 0.174502 0.933462
-0.356460 0.176897 0.985612
-0.356960 0.185252 0.926906
-0.351860 0.184640 0.932378
-0.353351 0.187565 0.985618
-0.357007 0.195123 0.926880
-0.352168 0.194996 0.931918
-0.353053 0.194135 0.985647
-0.356968 0.204986 0.926928
-0.352166 0.205081 0.931913
-0.354722 0.204476 0.985723
-0.356972 0.215021 0.926939
-0.352164 0.215166 0.931907
-0.353671 0.216577 0.985767
-0.356977 0.225055 0.926950
-0.352162 0.225250 0.931902
-0.352971 0.224941 0.985798
-0.356981 0.235091 0.926961
-0.352160 0.235335 0.931896
-0.352630 0.234197 0.985839
-0.356985 0.245126 0.926973
-0.352223 0.245148 0.931801
-0.352113 0.245412 0.985887
-0.356990 0.255161 0.926984
-0.352156 0.254942 0.931886
-0.352131 0.255206 0.985936
-0.357272 0.264122 0.927714
-0.352594 0.265586 0.933409
-0.352444 0.263913 0.985983
-0.359078 0.271927 0.929132
-0.355364 0.274862 0.934581
-0.351043 0.276189 0.943204
-0.350433 0.279830 0.954664
-0.350894 0.278116 0.960640
-0.356636 0.274815 0.986100
-0.357366 0.282887 0.935959
-0.353003 0.282915 0.943899
-0.351575 0.283151 0.953100
-0.358434 0.280166 0.986153
-0.349105 0.166522 0.945980
-0.348785 0.165595 0.954016
-0.349342 0.167303 0.961138
-0.348950 0.176307 0.938329
-0.347283 0.174635 0.944547
-0.346079 0.175658 0.953457
-0.347306 0.174086 0.960301
-0.348796 0.185508 0.937377
-0.346229 0.185319 0.944916
-0.345299 0.184138 0.953399
-0.348437 0.188441 0.985550
-0.348996 0.194920 0.936942
-0.346123 0.195228 0.945263
-0.345250 0.194580 0.954617
-0.348447 0.193779 0.985576
-0.348986 0.205054 0.936916
-0.346085 0.205236 0.945261
-0.345198 0.204881 0.954474
-0.348917 0.214899 0.936998
-0.346109 0.215017 0.944918
-0.345147 0.215179 0.954331
-0.348491 0.218696 0.985700
-0.348967 0.224760 0.936865
-0.346041 0.225012 0.945037
-0.345095 0.225474 0.954189
-0.348502 0.224926 0.985731
-0.348960 0.234895 0.936845
-0.345969 0.235008 0.945144
-0.345048 0.234908 0.954058
-0.346320 0.234351 0.962374
-0.348519 0.234717 0.985780
-0.348953 0.245029 0.936827
-0.346011 0.244792 0.944855
-0.345001 0.244339 0.953927
-0.346176 0.244666 0.961976
-0.348538 0.245399 0.985833
-0.348946 0.255163 0.936808
-0.345973 0.254795 0.944852
-0.344949 0.254626 0.953785
-0.346033 0.254971 0.961578
-0.348555 0.255192 0.985882
-0.349120 0.263693 0.937839
-0.347057 0.264744 0.944504
-0.345941 0.264834 0.953811
-0.345950 0.260979 0.961346
-0.348569 0.263205 0.985922
-0.349018 0.272646 0.946165
-0.348685 0.274102 0.952712
