# .PCD v0.7 - Point Cloud Data file format
VERSION 0.7
FIELDS x y z
SIZE 4 4 4
TYPE F F F
COUNT 1 1 1
WIDTH 324
HEIGHT 1
VIEWPOINT 0 0 0 1 0 0 0
POINTS 324
DATA ascii
-0.560569 0.406502 1.314037
-0.559816 0.406491 1.317845
-0.559069 0.407680 1.321699
-0.559847 0.410079 1.317917
-0.558189 0.411765 1.326414
-0.556441 0.414321 1.335421
-0.554514 0.417406 1.345364
-0.552550 0.419304 1.355421
-0.552571 0.421765 1.355472
-0.550976 0.423072 1.363627
-0.549775 0.424995 1.369824
-0.548562 0.426937 1.376083
-0.546918 0.428296 1.384488
-0.546939 0.430810 1.384541
-0.544857 0.432870 1.395206
-0.542744 0.436226 1.406023
-0.541141 0.438270 1.413984
-0.540560 0.440883 1.416914
-0.539666 0.439680 1.421289
-0.539675 0.442251 1.421312
-0.431593 0.166408 0.986671
-0.431614 0.175315 0.986719
-0.431637 0.185114 0.986771
-0.431660 0.194914 0.986823
-0.431683 0.204716 0.986876
-0.431708 0.215409 0.986933
-0.431731 0.225212 0.986985
-0.431754 0.235016 0.987038
-0.431776 0.244822 0.987090
-0.431799 0.254628 0.987143
-0.431824 0.265327 0.987200
-0.431550 0.275729 0.987251
-0.430974 0.284941 0.987291
-0.430993 0.292968 0.987334
-0.420804 0.147682 0.986411
-0.423211 0.156295 0.986493
-0.427673 0.165619 0.986609
-0.429149 0.174641 0.986678
-0.429837 0.181546 0.986725
-0.427932 0.287247 0.987258
-0.426155 0.294017 0.987268
-0.422049 0.300955 0.987244
-0.412615 0.088926 0.985978
-0.413225 0.094561 0.986017
-0.413542 0.103163 0.986067
-0.411778 0.114729 0.986102
-0.414487 0.125414 0.986199
-0.417795 0.136695 0.986308
-0.419001 0.142336 0.986356
-0.405458 0.088916 0.985871
-0.409937 0.091591 0.985952
-0.401538 0.147400 0.939263
-0.402340 0.143754 0.943130
-0.401921 0.155363 0.936210
-0.402982 0.165401 0.933506
-0.406256 0.161994 0.940381
-0.401883 0.175822 0.928319
-0.405194 0.174315 0.932566
-0.402651 0.185002 0.928160
-0.405757 0.184817 0.931449
-0.402729 0.194248 0.928341
-0.405928 0.194980 0.931840
-0.401698 0.205447 0.927504
-0.406098 0.205152 0.932232
-0.401485 0.214960 0.927399
-0.406269 0.215331 0.932624
-0.401557 0.225037 0.927564
-0.406440 0.225520 0.933016
-0.401628 0.235118 0.927730
-0.406611 0.235717 0.933408
-0.401700 0.245202 0.927895
-0.406768 0.245072 0.933768
-0.401775 0.255293 0.928069
-0.406925 0.254434 0.934129
-0.401542 0.262949 0.928498
-0.405076 0.264252 0.933102
-0.402158 0.273815 0.934143
-0.401516 0.281484 0.937236
-0.390483 0.088939 0.939162
-0.392551 0.089024 0.940059
-0.393211 0.088817 0.956094
-0.394724 0.088902 0.985712
-0.392599 0.094970 0.940172
-0.392454 0.104690 0.940639
-0.391135 0.116035 0.939100
-0.393393 0.115044 0.942074
-0.392458 0.125920 0.937030
-0.396481 0.124415 0.942679
-0.394042 0.135437 0.935317
-0.398908 0.134948 0.941057
-0.391030 0.147107 0.929391
-0.395026 0.144471 0.933116
-0.392788 0.155848 0.927930
-0.397479 0.154239 0.931734
-0.394786 0.165689 0.926285
-0.398696 0.160318 0.930653
-0.394854 0.174932 0.923622
-0.395406 0.184798 0.922963
-0.395457 0.194813 0.923082
-0.394814 0.204479 0.922779
-0.394432 0.214689 0.922636
-0.394481 0.224703 0.922752
-0.394531 0.234719 0.922868
-0.394581 0.244738 0.922984
-0.394630 0.254760 0.923100
-0.394524 0.265073 0.924333
-0.393901 0.274518 0.927265
-0.398137 0.277185 0.931309
-0.391828 0.281936 0.928699
-0.395775 0.283826 0.932240
-0.384434 0.088911 0.938869
-0.384414 0.088777 0.955660
-0.384888 0.088889 0.985565
-0.384758 0.094501 0.935533
-0.384788 0.104548 0.935899
-0.384512 0.114880 0.935929
-0.384687 0.124578 0.933316
-0.383457 0.138156 0.929320
-0.385391 0.133076 0.931276
-0.384769 0.145665 0.927733
-0.388453 0.140111 0.930244
-0.384824 0.155332 0.925161
-0.384874 0.164554 0.922758
-0.383450 0.177340 0.919256
-0.385985 0.172864 0.920774
-0.384246 0.185302 0.919084
-0.389165 0.186700 0.920028
-0.383786 0.195623 0.919066
-0.389197 0.194184 0.920102
-0.383815 0.205585 0.919137
-0.389242 0.204995 0.920209
-0.383845 0.215550 0.919208
-0.389288 0.215810 0.920317
-0.383875 0.225516 0.919278
-0.389329 0.225795 0.920416
-0.383648 0.235234 0.919302
-0.388904 0.236579 0.920390
-0.383038 0.245409 0.919260
-0.388468 0.245697 0.920340
-0.383068 0.255378 0.919334
-0.388505 0.255683 0.920428
-0.382515 0.262266 0.919499
-0.385764 0.265703 0.921082
-0.384852 0.274910 0.923914
-0.385010 0.283455 0.926749
-0.384440 0.303458 0.986698
-0.374935 0.088867 0.938408
-0.374746 0.088733 0.955184
-0.376842 0.088878 0.985446
-0.374541 0.094479 0.935316
-0.374559 0.104768 0.935761
-0.374741 0.114784 0.935818
-0.374211 0.113774 0.985539
-0.374915 0.124366 0.933180
-0.371256 0.125925 0.985559
-0.376784 0.137787 0.929219
-0.373717 0.133383 0.931003
-0.374817 0.145513 0.927539
-0.370014 0.140119 0.930291
-0.374979 0.154983 0.925030
-0.374825 0.164916 0.922439
-0.375309 0.177125 0.919258
-0.374474 0.171974 0.920630
-0.374632 0.185659 0.918983
-0.374653 0.195616 0.919035
-0.374674 0.205574 0.919087
-0.374696 0.215533 0.919139
-0.374717 0.225494 0.919191
-0.374738 0.235456 0.919243
-0.374760 0.245419 0.919297
-0.374782 0.255383 0.919351
-0.375696 0.262549 0.919557
-0.374428 0.266835 0.920998
-0.374940 0.274732 0.923439
-0.374797 0.283084 0.926152
-0.376895 0.302660 0.986582
-0.368313 0.088903 0.938790
-0.363860 0.089476 0.944832
-0.365965 0.088693 0.954750
-0.368235 0.094810 0.938593
-0.363910 0.095275 0.944657
-0.362086 0.094607 0.953606
-0.368329 0.103872 0.938524
-0.364560 0.105313 0.944735
-0.362405 0.104404 0.953540
-0.368454 0.115964 0.938532
-0.364433 0.115123 0.944181
-0.362218 0.115585 0.952828
-0.366703 0.125557 0.936848
-0.361803 0.124664 0.943537
-0.360506 0.121697 0.952466
-0.364923 0.135036 0.935250
-0.360575 0.133200 0.940689
-0.368000 0.136889 0.985569
-0.368607 0.146634 0.929053
-0.363918 0.144272 0.932818
-0.365338 0.146668 0.985582
-0.366126 0.155947 0.927664
-0.361856 0.153465 0.931179
-0.362377 0.156151 0.985588
-0.364739 0.165176 0.925733
-0.360010 0.164449 0.985597
-0.369198 0.178376 0.919896
-0.364971 0.174540 0.922882
-0.369208 0.184189 0.919922
-0.364260 0.184627 0.922106
-0.369229 0.194986 0.919974
-0.364272 0.194613 0.922136
-0.364993 0.204769 0.921861
-0.365006 0.214754 0.921894
-0.365020 0.224739 0.921928
-0.365098 0.234848 0.921931
-0.365046 0.244950 0.921994
-0.365059 0.254938 0.922027
-0.364901 0.264984 0.923271
-0.365372 0.274954 0.926468
-0.360679 0.278974 0.930742
-0.366530 0.282897 0.928555
-0.361915 0.283358 0.931585
-0.360250 0.287310 0.986253
-0.359264 0.127735 0.947978
-0.359097 0.127034 0.952980
-0.359820 0.139695 0.938721
-0.358213 0.135185 0.944785
-0.356925 0.135545 0.953612
-0.358329 0.146227 0.937870
-0.355476 0.144899 0.944833
-0.354349 0.145090 0.954395
-0.356925 0.155508 0.935731
-0.352905 0.154704 0.944207
-0.351639 0.154903 0.953694
-0.359045 0.166324 0.929048
-0.354803 0.164895 0.934560
-0.350833 0.163293 0.943019
-0.350542 0.161855 0.959676
-0.358233 0.169783 0.985599
-0.357310 0.175791 0.927478
-0.352395 0.174500 0.933451
-0.356459 0.176896 0.985610
-0.356963 0.185254 0.926914
-0.351631 0.185071 0.932729
-0.353228 0.186756 0.985614
-0.357011 0.195125 0.926891
-0.351701 0.194960 0.932621
-0.353242 0.193713 0.985652
-0.356973 0.204989 0.926942
-0.352172 0.205084 0.931928
-0.354725 0.204478 0.985731
-0.356979 0.215024 0.926956
-0.352171 0.215170 0.931925
-0.353675 0.216580 0.985779
-0.356984 0.225060 0.926969
-0.352169 0.225255 0.931922
-0.352976 0.224945 0.985813
-0.356990 0.235096 0.926984
-0.352168 0.235340 0.931919
-0.352637 0.234202 0.985857
-0.356995 0.245132 0.926997
-0.352232 0.245154 0.931826
-0.352122 0.245418 0.985909
-0.357000 0.255169 0.927011
-0.352166 0.254950 0.931914
-0.352140 0.255213 0.985962
-0.357416 0.264132 0.927652
-0.352700 0.265549 0.933336
-0.352455 0.263921 0.986013
-0.359102 0.271946 0.929194
-0.355389 0.274881 0.934647
-0.351073 0.276212 0.943283
-0.350483 0.279870 0.954800
-0.351053 0.278242 0.961076
-0.356648 0.274824 0.986133
-0.357311 0.282708 0.936043
-0.353033 0.282939 0.943981
-0.351502 0.282666 0.954066
-0.358447 0.280176 0.986188
-0.349065 0.166422 0.946295
-0.348778 0.165611 0.954381
-0.349326 0.167295 0.961092
-0.348947 0.176306 0.938322
-0.347278 0.174632 0.944534
-0.346073 0.175655 0.953438
-0.347287 0.174077 0.960249
-0.348472 0.184811 0.938010
-0.346280 0.185375 0.944692
-0.345309 0.184153 0.953003
-0.348437 0.187551 0.985547
-0.348617 0.194962 0.937668
-0.346131 0.195232 0.945283
-0.345262 0.194586 0.954650
-0.348447 0.192890 0.985576
-0.348992 0.205058 0.936933
-0.346093 0.205241 0.945282
-0.345210 0.204888 0.954506
-0.348924 0.214903 0.937016
-0.346116 0.215022 0.944940
-0.345158 0.215186 0.954363
-0.348496 0.218699 0.985714
-0.348975 0.224765 0.936887
-0.346002 0.224801 0.945235
-0.345107 0.225481 0.954220
-0.348507 0.224929 0.985747
-0.348969 0.234901 0.936870
-0.346026 0.234806 0.944997
-0.345059 0.234916 0.954089
-0.346339 0.234364 0.962427
-0.348526 0.234721 0.985799
-0.348963 0.245036 0.936853
-0.346021 0.244799 0.944881
-0.345012 0.244347 0.953958
-0.346193 0.244677 0.962021
-0.348546 0.245405 0.985856
-0.348957 0.255171 0.936837
-0.345984 0.254803 0.944881
-0.344960 0.254634 0.953815
-0.346047 0.254982 0.961616
-0.348564 0.255199 0.985909
-0.349140 0.263708 0.937894
-0.347083 0.264764 0.944575
-0.345997 0.264877 0.953966
-0.345962 0.260989 0.961380
-0.348580 0.263213 0.985951
-0.349050 0.272671 0.946252
-0.348733 0.274140 0.952842
