# .PCD v0.7 - Point Cloud Data file format
VERSION 0.7
FIELDS x y z
SIZE 4 4 4
TYPE F F F
COUNT 1 1 1
WIDTH 112
HEIGHT 1
VIEWPOINT 0 0 0 1 0 0 0
POINTS 112
DATA ascii
-0.561007 0.407146 1.312294
-0.559896 0.408926 1.318032
-0.557638 0.412543 1.329689
-0.554083 0.417926 1.348024
-0.552631 0.421810 1.355620
-0.549830 0.425049 1.369999
-0.545746 0.431591 1.391084
-0.542119 0.437151 1.409595
-0.540622 0.440933 1.417076
-0.539728 0.439730 1.421452
-0.539736 0.442302 1.421475
-0.422291 0.152725 0.986422
-0.429152 0.169274 0.986594
-0.431463 0.188812 0.986713
-0.431653 0.210041 0.986807
-0.431692 0.230532 0.986896
-0.431729 0.250136 0.986981
-0.431618 0.270485 0.987067
-0.429115 0.289341 0.987112
-0.422150 0.302146 0.987064
-0.408901 0.090554 0.985955
-0.413108 0.107613 0.986091
-0.415608 0.128974 0.986220
-0.401744 0.153341 0.936785
-0.401777 0.143552 0.941810
-0.418989 0.142332 0.986328
-0.403311 0.170759 0.931756
-0.409990 0.174012 0.941166
-0.404165 0.189888 0.929631
-0.404153 0.210109 0.929918
-0.403057 0.230155 0.929088
-0.403147 0.250103 0.929404
-0.402973 0.267257 0.931810
-0.400716 0.280923 0.935368
-0.418390 0.303555 0.987014
-0.384570 0.094079 0.935868
-0.389482 0.090757 0.947761
-0.390264 0.088898 0.985673
-0.385115 0.109868 0.936140
-0.392875 0.109664 0.941204
-0.387457 0.130578 0.933148
-0.397324 0.128587 0.941728
-0.389205 0.150300 0.928447
-0.383622 0.177301 0.919241
-0.390262 0.168867 0.923558
-0.384570 0.190270 0.919097
-0.395167 0.190077 0.922780
-0.383786 0.210543 0.919066
-0.394336 0.209826 0.922541
-0.383836 0.230467 0.919186
-0.393391 0.229877 0.922144
-0.383826 0.250239 0.919295
-0.393377 0.250052 0.922303
-0.382776 0.262537 0.919430
-0.389655 0.270735 0.924205
-0.388769 0.283167 0.928113
-0.383472 0.303396 0.986497
-0.372503 0.093868 0.936842
-0.365109 0.093335 0.948156
-0.376853 0.088880 0.985474
-0.372910 0.109847 0.936609
-0.364078 0.110481 0.946256
-0.373769 0.115997 0.985546
-0.370558 0.130594 0.933700
-0.361547 0.125398 0.944250
-0.369949 0.130309 0.985551
-0.369359 0.150080 0.928571
-0.364439 0.149775 0.985553
-0.375062 0.177167 0.919254
-0.368745 0.168754 0.923356
-0.373790 0.190529 0.919096
-0.364255 0.189614 0.922094
-0.374051 0.210284 0.919140
-0.364472 0.209930 0.922055
-0.374689 0.230451 0.919122
-0.365035 0.229838 0.921868
-0.374724 0.250369 0.919208
-0.365022 0.249923 0.921934
-0.375632 0.262505 0.919400
-0.368829 0.270890 0.923929
-0.369353 0.283092 0.927901
-0.360186 0.286370 0.986079
-0.376611 0.302771 0.986393
-0.359851 0.139707 0.938802
-0.358193 0.133463 0.948213
-0.357440 0.152292 0.936545
-0.353895 0.149959 0.947467
-0.354696 0.170911 0.932475
-0.348447 0.169756 0.947416
-0.349120 0.168065 0.960528
-0.358216 0.170960 0.985553
-0.353511 0.190076 0.931023
-0.346025 0.190015 0.947342
-0.351292 0.191105 0.985537
-0.353516 0.209997 0.931001
-0.345966 0.210143 0.947182
-0.354702 0.209799 0.985668
-0.353485 0.230070 0.931020
-0.345889 0.229917 0.946969
-0.351159 0.230254 0.985703
-0.353500 0.250144 0.930992
-0.345840 0.249855 0.946836
-0.346332 0.253455 0.962408
-0.350908 0.249344 0.985783
-0.354656 0.268723 0.932718
-0.348418 0.269856 0.946883
-0.346229 0.261190 0.962122
-0.350914 0.264173 0.985847
-0.357363 0.282885 0.935951
-0.352744 0.282733 0.945064
-0.352556 0.283257 0.960446
-0.358388 0.280130 0.986026
