# .PCD v0.7 - Point Cloud Data file format
VERSION 0.7
FIELDS x y z
SIZE 4 4 4
TYPE F F F
COUNT 1 1 1
WIDTH 112
HEIGHT 1
VIEWPOINT 0 0 0 1 0 0 0
POINTS 112
DATA ascii
-0.561007 0.407146 1.312293
-0.559895 0.408926 1.318031
-0.557638 0.412542 1.329688
-0.554082 0.417925 1.348023
-0.552630 0.421810 1.355618
-0.549830 0.425049 1.369997
-0.545746 0.431590 1.391083
-0.542118 0.437151 1.409594
-0.540622 0.440933 1.417075
-0.539727 0.439730 1.421450
-0.539736 0.442301 1.421474
-0.422291 0.152725 0.986422
-0.429152 0.169274 0.986595
-0.431463 0.188812 0.986713
-0.431653 0.210042 0.986808
-0.431692 0.230532 0.986896
-0.431729 0.250136 0.986982
-0.431618 0.270485 0.987068
-0.429115 0.289341 0.987112
-0.422151 0.302147 0.987064
-0.408901 0.090554 0.985956
-0.413108 0.107613 0.986091
-0.415608 0.128974 0.986220
-0.401745 0.153342 0.936786
-0.401781 0.143554 0.941821
-0.418989 0.142332 0.986328
-0.403311 0.170760 0.931758
-0.409996 0.174015 0.941178
-0.404166 0.189889 0.929633
-0.404154 0.210110 0.929920
-0.403058 0.230156 0.929089
-0.403147 0.250103 0.929406
-0.402975 0.267258 0.931814
-0.400719 0.280925 0.935376
-0.418391 0.303556 0.987015
-0.384570 0.094079 0.935868
-0.389481 0.090756 0.947758
-0.390264 0.088898 0.985673
-0.385115 0.109868 0.936140
-0.392876 0.109664 0.941205
-0.387457 0.130578 0.933148
-0.397325 0.128588 0.941730
-0.389205 0.150300 0.928447
-0.383622 0.177301 0.919241
-0.390262 0.168867 0.923558
-0.384570 0.190270 0.919097
-0.395167 0.190077 0.922781
-0.383786 0.210543 0.919066
-0.394336 0.209827 0.922542
-0.383836 0.230467 0.919187
-0.393391 0.229878 0.922144
-0.383826 0.250239 0.919296
-0.393377 0.250053 0.922304
-0.382777 0.262537 0.919431
-0.389655 0.270736 0.924206
-0.388769 0.283168 0.928114
-0.383472 0.303397 0.986498
-0.372503 0.093868 0.936841
-0.365108 0.093335 0.948155
-0.376853 0.088880 0.985474
-0.372910 0.109847 0.936609
-0.364078 0.110481 0.946255
-0.373769 0.115997 0.985546
-0.370558 0.130594 0.933700
-0.361547 0.125398 0.944249
-0.369949 0.130309 0.985551
-0.369359 0.150080 0.928571
-0.364439 0.149775 0.985554
-0.375062 0.177167 0.919254
-0.368745 0.168754 0.923356
-0.373790 0.190529 0.919097
-0.364255 0.189614 0.922094
-0.374051 0.210284 0.919140
-0.364472 0.209930 0.922055
-0.374689 0.230451 0.919122
-0.365035 0.229838 0.921868
-0.374724 0.250370 0.919208
-0.365022 0.249923 0.921934
-0.375632 0.262505 0.919400
-0.368829 0.270890 0.923929
-0.369353 0.283092 0.927901
-0.360187 0.286371 0.986080
-0.376611 0.302772 0.986394
-0.359851 0.139707 0.938801
-0.358192 0.133463 0.948211
-0.357440 0.152292 0.936545
-0.353894 0.149959 0.947466
-0.354696 0.170911 0.932474
-0.348446 0.169756 0.947414
-0.349119 0.168064 0.960525
-0.358216 0.170960 0.985553
-0.353511 0.190076 0.931022
-0.346024 0.190014 0.947341
-0.351292 0.191105 0.985537
-0.353516 0.209997 0.931001
-0.345966 0.210143 0.947181
-0.354702 0.209799 0.985668
-0.353485 0.230070 0.931020
-0.345889 0.229917 0.946968
-0.351159 0.230254 0.985704
-0.353500 0.250144 0.930991
-0.345840 0.249855 0.946836
-0.346330 0.253454 0.962404
-0.350908 0.249344 0.985783
-0.354656 0.268723 0.932718
-0.348417 0.269855 0.946882
-0.346227 0.261189 0.962117
-0.350914 0.264173 0.985847
-0.357363 0.282885 0.935951
-0.352744 0.282733 0.945063
-0.352552 0.283255 0.960437
-0.358388 0.280130 0.986026
