# .PCD v0.7 - Point Cloud Data file format
VERSION 0.7
FIELDS x y z
SIZE 4 4 4
TYPE F F F
COUNT 1 1 1
WIDTH 112
HEIGHT 1
VIEWPOINT 0 0 0 1 0 0 0
POINTS 112
DATA ascii
-0.561008 0.407146 1.312295
-0.559896 0.408926 1.318033
-0.557638 0.412543 1.329690
-0.554083 0.417926 1.348024
-0.552631 0.421811 1.355620
-0.549830 0.425049 1.369999
-0.545746 0.431591 1.391085
-0.542119 0.437152 1.409596
-0.540622 0.440933 1.417076
-0.539728 0.439731 1.421452
-0.539737 0.442302 1.421476
-0.422231 0.152843 0.986421
-0.429152 0.169274 0.986594
-0.431463 0.188812 0.986713
-0.431653 0.210041 0.986807
-0.431691 0.230532 0.986896
-0.431729 0.250136 0.986981
-0.431618 0.270485 0.987067
-0.429115 0.289341 0.987111
-0.422150 0.302146 0.987064
-0.408901 0.090554 0.985955
-0.413107 0.107613 0.986091
-0.415608 0.128974 0.986220
-0.401744 0.153341 0.936784
-0.401773 0.143551 0.941801
-0.418989 0.142332 0.986328
-0.403310 0.170759 0.931755
-0.409986 0.174011 0.941157
-0.404164 0.189888 0.929629
-0.404153 0.210109 0.929917
-0.403056 0.230155 0.929086
-0.403146 0.250102 0.929403
-0.402972 0.267257 0.931809
-0.400714 0.280922 0.935364
-0.418390 0.303555 0.987014
-0.384570 0.094079 0.935868
-0.389483 0.090757 0.947764
-0.390264 0.088898 0.985672
-0.385115 0.109868 0.936140
-0.392875 0.109664 0.941203
-0.387457 0.130578 0.933147
-0.397323 0.128587 0.941725
-0.389204 0.150300 0.928446
-0.383622 0.177301 0.919240
-0.390262 0.168867 0.923558
-0.384570 0.190270 0.919097
-0.395166 0.190076 0.922779
-0.383786 0.210543 0.919065
-0.394335 0.209826 0.922540
-0.383836 0.230467 0.919186
-0.393390 0.229877 0.922143
-0.383825 0.250239 0.919295
-0.393377 0.250052 0.922302
-0.382776 0.262537 0.919430
-0.389654 0.270735 0.924204
-0.388768 0.283167 0.928112
-0.383472 0.303396 0.986497
-0.372503 0.093868 0.936842
-0.365109 0.093335 0.948157
-0.376853 0.088880 0.985474
-0.372910 0.109847 0.936609
-0.364079 0.110481 0.946256
-0.373769 0.115997 0.985545
-0.370558 0.130594 0.933700
-0.361547 0.125398 0.944250
-0.369949 0.130309 0.985551
-0.369359 0.150080 0.928571
-0.364438 0.149775 0.985553
-0.375062 0.177167 0.919254
-0.368745 0.168754 0.923355
-0.373790 0.190529 0.919096
-0.364255 0.189614 0.922094
-0.374051 0.210283 0.919140
-0.364472 0.209930 0.922055
-0.374689 0.230451 0.919122
-0.365035 0.229838 0.921868
-0.374724 0.250369 0.919208
-0.365022 0.249923 0.921934
-0.375632 0.262505 0.919400
-0.368829 0.270890 0.923929
-0.369353 0.283092 0.927901
-0.360186 0.286370 0.986079
-0.376611 0.302771 0.986393
-0.359851 0.139707 0.938802
-0.358193 0.133463 0.948213
-0.357440 0.152292 0.936545
-0.353895 0.149960 0.947468
-0.354696 0.170911 0.932475
-0.348447 0.169756 0.947416
-0.349121 0.168065 0.960530
-0.358216 0.170960 0.985552
-0.353511 0.190076 0.931023
-0.346025 0.190015 0.947343
-0.351292 0.191105 0.985537
-0.353516 0.209997 0.931001
-0.345966 0.210143 0.947182
-0.354702 0.209799 0.985668
-0.353485 0.230070 0.931020
-0.345889 0.229917 0.946969
-0.351159 0.230254 0.985703
-0.353500 0.250144 0.930991
-0.345840 0.249855 0.946837
-0.346332 0.253456 0.962409
-0.350908 0.249344 0.985782
-0.354656 0.268723 0.932717
-0.348418 0.269856 0.946883
-0.346229 0.261191 0.962123
-0.350914 0.264173 0.985846
-0.357363 0.282885 0.935951
-0.352699 0.282879 0.945689
-0.352556 0.283257 0.960446
-0.358388 0.280130 0.986026
